<svg width="169" height="186" viewBox="0 0 169 186" fill="none" xmlns="http://www.w3.org/2000/svg">
<path d="M237.189 46.5244C237.422 45.7294 236.967 44.8961 236.172 44.6631L223.217 40.8663C222.422 40.6333 221.588 41.0889 221.355 41.8839C221.122 42.6789 221.578 43.5123 222.373 43.7452L233.889 47.1201L230.514 58.6358C230.281 59.4308 230.736 60.2641 231.531 60.4971C232.326 60.7301 233.16 60.2745 233.393 59.4795L237.189 46.5244ZM-1.24933 0.830172C45.8239 71.6707 79.9497 97.6187 115.353 98.3397C132.991 98.699 150.739 92.7825 170.283 83.4192C189.8 74.0685 211.352 61.1505 236.47 47.4187L235.03 44.7864C209.756 58.6041 188.412 71.407 168.986 80.7137C149.588 90.0077 132.349 95.6853 115.414 95.3404C81.6735 94.6532 48.3159 70.0004 1.24933 -0.830172L-1.24933 0.830172Z" transform="translate(1 184.132) rotate(-60.4732)" fill="#333333"/>
</svg>
